<svg xmlns="http://www.w3.org/2000/svg" width="150" height="50" viewBox="0 0 150 50"><rect width="100%" height="100%" fill="#FFFFFF"/><path fill="#CCC" d="M34.285 25.15h3.91l-1.5-4.09q-.11-.27-.23-.65-.12-.37-.24-.8-.11.43-.23.81t-.23.66zm3.12-7.65 4.82 12.29h-1.76q-.3 0-.49-.15t-.28-.37l-.92-2.51h-5.09l-.92 2.51q-.06.2-.26.36t-.48.16h-1.79l4.84-12.29zm14.54 9.39q.19 0 .33.15l.9.97q-.75.93-1.84 1.42-1.09.5-2.62.5-1.37 0-2.46-.47t-1.87-1.3q-.77-.84-1.18-1.99-.41-1.16-.41-2.53 0-1.38.44-2.53t1.24-1.99q.81-.83 1.92-1.29 1.11-.47 2.46-.47t2.39.44q1.04.45 1.77 1.16l-.76 1.06q-.07.11-.18.18-.11.08-.29.08-.13 0-.27-.07l-.29-.18q-.16-.11-.38-.24-.21-.12-.49-.23t-.65-.18-.85-.07q-.83 0-1.51.29-.69.3-1.18.85-.49.56-.77 1.36-.27.81-.27 1.83 0 1.04.3 1.85.29.81.79 1.36t1.18.84q.68.3 1.46.3.47 0 .85-.05t.7-.16q.32-.12.6-.29.29-.17.57-.43.08-.08.17-.12.1-.05.2-.05m14.41-9.39h1.72v12.29h-2.01v-7.94q0-.48.05-1.03l-3.72 6.98q-.26.5-.8.5h-.33q-.54 0-.8-.5l-3.76-7q.03.28.04.55.02.27.02.5v7.94h-2.02V17.5h1.73q.15 0 .26.01t.2.04.16.11q.08.08.15.2l3.68 6.83q.14.27.26.56.13.29.25.6.11-.32.24-.61.13-.3.27-.57l3.63-6.81q.07-.12.15-.2.07-.08.16-.11t.2-.04.27-.01m12.21 1.82h-5.46v3.41h4.31v1.76h-4.31v3.47h5.46v1.83h-7.75V17.5h7.75zm14.6 7.57q.18 0 .33.15l.9.97q-.75.93-1.84 1.42-1.09.5-2.62.5-1.37 0-2.46-.47-1.1-.47-1.87-1.3-.77-.84-1.19-1.99-.41-1.16-.41-2.53 0-1.38.44-2.53.45-1.15 1.25-1.99.8-.83 1.92-1.29 1.11-.47 2.46-.47 1.34 0 2.38.44 1.05.45 1.78 1.16l-.77 1.06q-.07.11-.17.18-.11.08-.3.08-.12 0-.26-.07-.13-.08-.3-.18-.16-.11-.37-.24-.21-.12-.49-.23t-.65-.18-.86-.07q-.82 0-1.51.29-.68.3-1.17.85-.5.56-.77 1.36-.27.81-.27 1.83 0 1.04.29 1.85.3.81.8 1.36t1.18.84q.68.3 1.46.3.47 0 .85-.05.37-.05.69-.16.32-.12.61-.29.28-.17.56-.43.09-.08.18-.12.09-.05.2-.05m6.33-5.96q.97 0 1.76.32.8.31 1.36.89.57.58.87 1.41.31.83.31 1.86 0 1.04-.31 1.87-.3.84-.87 1.42-.56.59-1.36.9-.79.32-1.76.32-.98 0-1.78-.32-.8-.31-1.36-.9-.57-.58-.88-1.42-.31-.83-.31-1.87 0-1.03.31-1.86t.88-1.41q.56-.58 1.36-.89.8-.32 1.78-.32m0 7.37q1.09 0 1.61-.73t.52-2.14-.52-2.15-1.61-.74q-1.11 0-1.64.74-.53.75-.53 2.15t.53 2.14q.53.73 1.64.73m7.76-6.7.13.98q.4-.78.97-1.23.56-.44 1.32-.44.61 0 .97.26l-.14 1.57q-.04.16-.12.22t-.22.06q-.12 0-.37-.04t-.49-.04q-.35 0-.62.1t-.49.29q-.22.2-.38.47-.17.27-.31.62v5.37h-2.1v-8.72h1.23q.32 0 .45.11.13.12.17.42m6.59 2.02v3.91q.35.43.77.61.43.18.92.18.47 0 .86-.18.38-.18.65-.54.26-.37.41-.93.14-.55.14-1.31t-.12-1.29q-.12-.54-.35-.87t-.56-.48q-.33-.16-.74-.16-.66 0-1.12.28t-.86.78m-.28-2.17.17.81q.53-.6 1.21-.98.68-.37 1.6-.37.71 0 1.3.29.6.3 1.02.87.43.56.67 1.39.23.83.23 1.9 0 .98-.26 1.81-.27.83-.75 1.45-.49.61-1.19.95-.69.35-1.55.35-.73 0-1.25-.23-.52-.22-.92-.62v3.57h-2.1V21.07h1.28q.41 0 .54.38"/></svg>