<svg xmlns="http://www.w3.org/2000/svg" width="150" height="50" viewBox="0 0 150 50"><rect width="100%" height="100%" fill="#FFFFFF"/><path fill="#CCC" d="M39.765 27.23q.21 0 .37.16l1 1.09q-.83 1.04-2.05 1.59t-2.93.55q-1.53 0-2.75-.52t-2.09-1.45q-.86-.93-1.32-2.23-.47-1.29-.47-2.82 0-1.55.5-2.83.49-1.29 1.39-2.22t2.14-1.45q1.25-.52 2.76-.52 1.5 0 2.66.5 1.17.49 1.98 1.29l-.85 1.18q-.08.12-.2.2-.12.09-.32.09-.15 0-.3-.08t-.33-.2-.42-.26-.55-.26-.73-.2q-.41-.08-.95-.08-.92 0-1.69.32-.76.33-1.31.95-.55.63-.86 1.52-.3.9-.3 2.05 0 1.16.33 2.06.32.91.88 1.52.56.62 1.32.95t1.64.33q.52 0 .94-.06.43-.06.78-.18.36-.13.68-.32.31-.19.63-.48.09-.08.2-.14.1-.05.22-.05m9.73-6.51h1.88l-5.31 12.43q-.1.25-.27.37-.16.13-.5.13h-1.75l1.82-3.91-3.94-9.02h2.06q.28 0 .43.14.16.13.24.3l2.07 5.05q.1.26.17.52.07.25.14.52.09-.27.17-.53.09-.26.19-.52l1.96-5.04q.07-.19.25-.31.18-.13.39-.13m5.4 2.85v4.37q.4.49.87.69t.99.2q.54 0 .98-.2.43-.19.73-.61.31-.41.47-1.05t.16-1.54q0-1.6-.53-2.32-.54-.71-1.53-.71-.68 0-1.18.3-.5.31-.96.87m0-7.22v5.57q.59-.62 1.31-.98.71-.37 1.63-.37.85 0 1.53.33.68.34 1.16.96t.73 1.5q.26.89.26 1.99 0 1.19-.29 2.16-.3.97-.84 1.65-.55.69-1.32 1.07t-1.71.38q-.46 0-.83-.09t-.68-.25-.57-.39q-.27-.24-.5-.52l-.11.65q-.06.25-.19.36-.14.1-.38.1h-1.55V16.35zm10.29 8.13h4.43q0-.46-.13-.86-.13-.41-.39-.71-.25-.31-.65-.48-.39-.18-.92-.18-1.01 0-1.6.58-.58.58-.74 1.65m5.98 1.41h-6.03q.06.75.27 1.3.21.54.55.9t.81.53q.47.18 1.04.18t.98-.13q.42-.14.73-.3l.54-.29q.23-.14.45-.14.29 0 .44.22l.67.86q-.39.45-.87.76-.49.31-1.02.5-.52.18-1.07.26-.55.07-1.06.07-1.02 0-1.89-.33-.87-.34-1.52-1t-1.02-1.64q-.37-.97-.37-2.25 0-1 .33-1.88.32-.88.92-1.53.61-.65 1.48-1.03.86-.38 1.96-.38.92 0 1.7.3.78.29 1.34.86.56.56.88 1.38.31.82.31 1.88 0 .53-.11.72-.11.18-.44.18m4.38-4.58.15 1.1q.45-.87 1.08-1.37t1.48-.5q.67 0 1.08.3l-.15 1.75q-.05.18-.14.25t-.24.07q-.14 0-.42-.05t-.55-.05q-.39 0-.69.12-.31.11-.55.32-.24.22-.42.52-.19.31-.35.7v6h-2.35v-9.75h1.38q.36 0 .5.13.15.13.19.46m11.14 6.27v-4.37q-.4-.48-.87-.68t-1.01-.2-.96.2q-.43.2-.74.6-.3.41-.46 1.03t-.16 1.47.14 1.44q.13.6.39.97.26.38.63.54.37.17.82.17.73 0 1.25-.3.51-.31.97-.87m0-11.23h2.34v14.12h-1.43q-.47 0-.59-.43l-.2-.94q-.59.68-1.35 1.09-.77.42-1.78.42-.8 0-1.47-.33-.66-.33-1.14-.96-.48-.64-.74-1.57t-.26-2.12q0-1.09.29-2.02t.85-1.61q.55-.69 1.32-1.07.77-.39 1.72-.39.82 0 1.4.26t1.04.69zm11.63 4.37h1.89l-5.32 12.43q-.1.25-.27.37-.16.13-.5.13h-1.75l1.82-3.91-3.94-9.02h2.06q.28 0 .43.14.16.13.24.3l2.07 5.05q.1.26.17.52.07.25.14.52.09-.27.17-.53.09-.26.19-.52l1.96-5.04q.07-.19.25-.31.18-.13.39-.13m5.09.43.16.77q.29-.29.62-.55.33-.25.69-.42.37-.18.79-.28t.91-.1q.8 0 1.42.27.61.27 1.03.76.41.49.62 1.17.22.68.22 1.5v6.2h-2.35v-6.2q0-.9-.41-1.39-.41-.48-1.24-.48-.61 0-1.14.27-.53.28-1.01.75v7.05h-2.35v-9.75h1.44q.45 0 .6.43m10.53 3.33h4.43q0-.46-.13-.86-.13-.41-.38-.71-.26-.31-.65-.48-.4-.18-.92-.18-1.02 0-1.6.58-.59.58-.75 1.65m5.99 1.41h-6.04q.06.75.27 1.3.21.54.55.9t.81.53q.47.18 1.04.18t.99-.13q.41-.14.72-.3t.54-.29q.23-.14.45-.14.3 0 .44.22l.67.86q-.39.45-.87.76t-1.01.5q-.53.18-1.08.26-.54.07-1.05.07-1.02 0-1.9-.33-.87-.34-1.52-1-.64-.66-1.01-1.64-.37-.97-.37-2.25 0-1 .32-1.88t.93-1.53q.6-.65 1.47-1.03t1.96-.38q.92 0 1.7.3.78.29 1.34.86.56.56.88 1.38t.32 1.88q0 .53-.12.72-.11.18-.43.18"/></svg>