<svg xmlns="http://www.w3.org/2000/svg" width="150" height="50" viewBox="0 0 150 50"><rect width="100%" height="100%" fill="#FFFFFF"/><path fill="#CCC" d="M45.83 25.125h6v7.31q-1.38 1.01-2.94 1.48-1.55.47-3.33.47-2.21 0-4-.69-1.8-.69-3.07-1.91-1.26-1.23-1.95-2.93t-.69-3.71q0-2.04.66-3.74.67-1.7 1.88-2.92 1.22-1.23 2.96-1.9 1.74-.68 3.9-.68 1.1 0 2.06.18.95.17 1.77.48t1.5.74q.67.44 1.23.97l-.96 1.52q-.22.36-.59.45-.36.08-.78-.19-.42-.23-.83-.47t-.92-.41q-.5-.18-1.14-.29-.63-.11-1.45-.11-1.34 0-2.42.45t-1.84 1.28q-.77.84-1.18 2.02-.41 1.17-.41 2.62 0 1.55.44 2.77.45 1.22 1.25 2.06.81.85 1.95 1.29 1.13.44 2.53.44 1 0 1.79-.21t1.54-.57v-3.28h-2.28q-.32 0-.5-.18t-.18-.44zm8.8-9.51h3.08v18.57h-3.08zm11.85 5.54q1.42 0 2.59.47 1.17.46 2 1.31t1.28 2.07q.45 1.23.45 2.74 0 1.53-.45 2.75-.45 1.23-1.28 2.09t-2 1.32q-1.17.47-2.59.47-1.44 0-2.62-.47-1.17-.46-2-1.32t-1.29-2.09q-.46-1.22-.46-2.75 0-1.51.46-2.74.46-1.22 1.29-2.07t2-1.31q1.18-.47 2.62-.47m0 10.84q1.6 0 2.36-1.07.77-1.08.77-3.15 0-2.08-.77-3.17-.76-1.08-2.36-1.08-1.63 0-2.41 1.09-.78 1.1-.78 3.16t.78 3.14 2.41 1.08m11.77-6.89v5.75q.53.64 1.14.9.62.27 1.31.27.71 0 1.28-.26t.97-.8.61-1.39q.22-.84.22-2.02 0-2.11-.7-3.05-.7-.95-2.02-.95-.88 0-1.55.41-.66.41-1.26 1.14m0-9.49v7.32q.78-.81 1.72-1.29.94-.49 2.16-.49 1.11 0 2 .44.9.44 1.53 1.26t.97 1.98q.33 1.16.33 2.61 0 1.56-.38 2.84-.39 1.27-1.11 2.18t-1.73 1.41-2.25.5q-.6 0-1.09-.12t-.9-.33q-.41-.22-.76-.52-.34-.31-.65-.68l-.14.86q-.07.32-.26.46-.18.14-.49.14h-2.04v-18.57zm13.54 10.68h5.82q0-.6-.17-1.13-.16-.53-.5-.93t-.86-.63-1.2-.23q-1.34 0-2.11.76t-.98 2.16m7.87 1.86h-7.93q.07.99.35 1.71.27.72.72 1.19t1.07.7 1.37.23 1.29-.18q.55-.17.95-.38.41-.22.71-.39.31-.18.6-.18.39 0 .57.29l.89 1.13q-.51.6-1.15 1-.64.41-1.33.65-.69.25-1.41.35t-1.4.1q-1.33 0-2.48-.45-1.15-.44-2-1.31t-1.34-2.15-.49-2.97q0-1.31.43-2.47.42-1.15 1.21-2.01.8-.86 1.94-1.36 1.15-.5 2.58-.5 1.22 0 2.24.39 1.03.39 1.76 1.13.74.75 1.16 1.83t.42 2.47q0 .7-.15.94t-.58.24m10.1-.72 4.39 6.75h-2.97q-.34 0-.55-.18-.2-.17-.34-.4l-2.71-4.46q-.07.21-.15.4t-.18.35l-2.4 3.71q-.14.22-.34.4t-.5.18h-2.76l4.4-6.61-4.22-6.22h2.97q.34 0 .5.1.16.09.29.3l2.69 4.28q.13-.43.38-.84l2.17-3.37q.27-.47.71-.47h2.84z"/></svg>