<svg xmlns="http://www.w3.org/2000/svg" width="150" height="50" viewBox="0 0 150 50"><rect width="100%" height="100%" fill="#FFFFFF"/><path fill="#CCC" d="M41.755 16.115v18.07h-3.38v-18.07zm6.22 5.81.21 1.01q.39-.39.82-.72t.91-.56q.49-.23 1.04-.36.55-.14 1.2-.14 1.05 0 1.86.36t1.35 1q.55.64.83 1.54.28.89.28 1.97v8.16h-3.09v-8.16q0-1.18-.53-1.82-.54-.65-1.64-.65-.8 0-1.5.37-.7.36-1.33.98v9.28h-3.08v-12.83h1.88q.6 0 .79.57m11.53-.57h3.1v12.83h-3.1zm3.52-3.73q0 .4-.16.75t-.43.61-.63.42q-.37.15-.78.15-.4 0-.76-.15-.35-.16-.61-.42-.27-.26-.42-.61-.16-.35-.16-.75 0-.42.16-.78.15-.36.42-.62.26-.27.61-.42.36-.16.76-.16.41 0 .78.16.36.15.63.42.27.26.43.62t.16.78m7 16.76q-1.67 0-2.57-.94-.89-.95-.89-2.61v-7.16h-1.31q-.25 0-.43-.17-.17-.16-.17-.48v-1.23l2.06-.34.65-3.5q.06-.25.24-.38.17-.14.45-.14h1.6v4.04h3.42v2.2h-3.42v6.95q0 .6.29.93.29.34.81.34.28 0 .48-.07.19-.07.33-.14l.26-.14q.11-.07.23-.07.13 0 .22.07.09.06.19.2l.92 1.5q-.67.56-1.55.85-.87.29-1.81.29m7.46-8.09h5.83q0-.6-.17-1.13t-.51-.93q-.33-.4-.85-.63t-1.21-.23q-1.34 0-2.11.76-.76.76-.98 2.16m7.88 1.86h-7.94q.08.99.35 1.71.28.72.73 1.19t1.06.7q.62.23 1.37.23t1.3-.18q.54-.17.95-.38l.71-.39q.31-.18.59-.18.39 0 .58.29l.89 1.13q-.52.6-1.15 1-.64.41-1.34.65-.69.25-1.41.35t-1.39.1q-1.34 0-2.49-.45-1.15-.44-2-1.31t-1.34-2.15q-.48-1.28-.48-2.97 0-1.31.42-2.47.43-1.15 1.22-2.01t1.94-1.36q1.14-.5 2.58-.5 1.21 0 2.24.39 1.02.39 1.76 1.13.74.75 1.15 1.83.42 1.08.42 2.47 0 .7-.15.94t-.57.24m13.04-5.21-.82 1.13q-.13.17-.27.27-.13.1-.38.1-.23 0-.46-.14-.22-.15-.54-.33-.31-.18-.74-.32-.43-.15-1.07-.15-.81 0-1.42.3-.62.29-1.02.84-.41.55-.61 1.33t-.2 1.77q0 1.03.22 1.83t.63 1.34 1 .83q.59.28 1.33.28.73 0 1.19-.18.46-.19.77-.4.31-.22.54-.4.23-.19.52-.19.38 0 .56.29l.89 1.13q-.51.6-1.11 1-.6.41-1.25.65-.64.25-1.32.35t-1.36.1q-1.18 0-2.23-.45-1.05-.44-1.84-1.29t-1.25-2.08q-.45-1.23-.45-2.81 0-1.41.4-2.62.41-1.2 1.2-2.08.79-.89 1.95-1.39t2.67-.5q1.44 0 2.52.47 1.08.46 1.95 1.32m5.13-7.33v7.12q.75-.7 1.65-1.14t2.12-.44q1.05 0 1.86.36t1.35 1q.55.64.83 1.54.28.89.28 1.97v8.16h-3.09v-8.16q0-1.18-.53-1.82-.54-.65-1.64-.65-.8 0-1.5.37-.7.36-1.33.98v9.28h-3.08v-18.57z"/></svg>