<svg xmlns="http://www.w3.org/2000/svg" width="150" height="50" viewBox="0 0 150 50"><rect width="100%" height="100%" fill="#FFFFFF"/><path fill="#CCC" d="m45.14 15.81-.84 1.59q-.15.26-.31.38-.17.12-.42.12-.27 0-.57-.19-.31-.2-.73-.43-.43-.24-1-.43-.57-.2-1.34-.2-.7 0-1.23.17-.52.17-.88.47-.35.3-.53.72-.17.42-.17.92 0 .63.35 1.06.36.42.95.72.58.3 1.33.54t1.54.51 1.54.62q.75.36 1.34.9.58.55.94 1.33.36.79.36 1.92 0 1.22-.42 2.29t-1.23 1.86q-.8.8-1.97 1.25-1.16.46-2.66.46-.86 0-1.7-.17t-1.6-.48q-.77-.31-1.45-.75-.67-.44-1.2-.98l.99-1.61q.12-.17.32-.29t.43-.12q.31 0 .67.26.37.25.87.56.5.32 1.17.57.66.26 1.6.26 1.44 0 2.23-.68.78-.68.78-1.96 0-.71-.35-1.16-.36-.45-.95-.76-.58-.3-1.33-.52-.75-.21-1.53-.46-.77-.25-1.52-.6t-1.34-.91-.94-1.41q-.36-.84-.36-2.08 0-.99.39-1.92.4-.94 1.15-1.67.75-.72 1.85-1.16t2.52-.44q1.6 0 2.95.5t2.3 1.4m8.44 3.35q1.42 0 2.59.47 1.17.46 2 1.31t1.28 2.07q.45 1.23.45 2.74 0 1.53-.45 2.75-.45 1.23-1.28 2.09t-2 1.32q-1.17.47-2.59.47-1.44 0-2.61-.47-1.18-.46-2.01-1.32t-1.29-2.09q-.45-1.22-.45-2.75 0-1.51.45-2.74.46-1.22 1.29-2.07t2.01-1.31q1.17-.47 2.61-.47m0 10.84q1.6 0 2.37-1.07.77-1.08.77-3.15 0-2.08-.77-3.17-.77-1.08-2.37-1.08-1.63 0-2.41 1.09-.78 1.1-.78 3.16t.78 3.14T53.58 30m17.86-10.64h2.48l-6.99 16.36q-.14.32-.36.49t-.67.17h-2.3l2.4-5.15-5.18-11.87h2.71q.36 0 .57.18.2.17.3.4l2.73 6.65q.14.34.23.67.09.34.18.69.11-.35.23-.69.11-.35.25-.68l2.57-6.64q.1-.25.33-.41.23-.17.52-.17m4.05-5.74h3.09v18.57h-3.09zM84.1 24.3h5.83q0-.6-.17-1.13t-.51-.93q-.33-.4-.85-.63t-1.21-.23q-1.34 0-2.1.76-.77.76-.99 2.16m7.88 1.86h-7.94q.08.99.35 1.71.28.72.73 1.19t1.07.7q.61.23 1.36.23t1.3-.18q.54-.17.95-.38l.71-.39q.31-.18.59-.18.39 0 .58.29l.89 1.13q-.52.6-1.15 1-.64.41-1.33.65-.7.25-1.42.35t-1.39.1q-1.34 0-2.49-.45-1.15-.44-2-1.31t-1.34-2.15q-.48-1.28-.48-2.97 0-1.31.42-2.47.43-1.15 1.22-2.01t1.94-1.36q1.14-.5 2.58-.5 1.21 0 2.24.39 1.02.39 1.76 1.13.74.75 1.16 1.83.41 1.08.41 2.47 0 .7-.15.94t-.57.24m5.71-6.23.22 1.01q.38-.39.81-.72.44-.33.92-.56t1.03-.36q.55-.14 1.2-.14 1.05 0 1.86.36t1.36 1q.54.64.82 1.54.28.89.28 1.97v8.16h-3.09v-8.16q0-1.18-.53-1.82-.54-.65-1.64-.65-.8 0-1.5.37-.7.36-1.33.98v9.28h-3.08V19.36h1.89q.59 0 .78.57m15.7 12.46q-1.67 0-2.57-.94-.89-.95-.89-2.61v-7.16h-1.31q-.25 0-.43-.17-.17-.16-.17-.48V19.8l2.06-.34.65-3.5q.06-.25.24-.38.17-.14.45-.14h1.6v4.04h3.42v2.2h-3.42v6.95q0 .6.29.93.3.34.81.34.29 0 .48-.07t.34-.14q.14-.08.25-.14.11-.07.23-.07.13 0 .22.07.09.06.19.2l.93 1.5q-.68.56-1.56.85-.87.29-1.81.29"/></svg>