<svg xmlns="http://www.w3.org/2000/svg" width="150" height="50" viewBox="0 0 150 50"><rect width="100%" height="100%" fill="#FFFFFF"/><path fill="#CCC" d="m57.995 17.805-.84 1.59q-.15.26-.32.38-.16.12-.41.12-.27 0-.57-.19-.31-.2-.73-.43-.43-.24-1-.43-.57-.2-1.34-.2-.7 0-1.23.17-.52.17-.88.47-.35.3-.53.72-.17.42-.17.92 0 .63.35 1.06.36.42.95.72.58.3 1.33.54t1.54.51 1.54.62q.75.36 1.34.9.58.55.94 1.33.36.79.36 1.92 0 1.22-.42 2.29t-1.23 1.86q-.8.8-1.97 1.25-1.16.46-2.66.46-.86 0-1.7-.17t-1.61-.48q-.76-.31-1.44-.75-.67-.44-1.2-.98l.99-1.61q.12-.17.32-.29t.43-.12q.31 0 .67.26.37.25.87.56.5.32 1.16.57.67.26 1.61.26 1.44 0 2.23-.68.78-.68.78-1.96 0-.71-.35-1.16-.36-.45-.95-.76-.58-.3-1.33-.52-.75-.21-1.53-.46-.77-.25-1.52-.6t-1.34-.91-.95-1.41q-.35-.84-.35-2.08 0-.99.39-1.92.4-.94 1.15-1.67.75-.72 1.85-1.16t2.52-.44q1.6 0 2.95.5t2.3 1.4m7.04 16.58q-1.68 0-2.57-.94-.89-.95-.89-2.61v-7.16h-1.32q-.25 0-.42-.17-.18-.16-.18-.48v-1.23l2.07-.34.65-3.5q.06-.25.23-.38.18-.14.45-.14h1.6v4.04h3.43v2.2h-3.43v6.95q0 .6.3.93.29.34.8.34.29 0 .48-.07.2-.07.34-.14l.26-.14q.11-.07.22-.07.14 0 .23.07.09.06.19.2l.92 1.5q-.67.56-1.55.85-.87.29-1.81.29m11.8-3.51v-2.17q-1.34.07-2.25.24-.91.16-1.46.43-.55.26-.79.61t-.24.76q0 .81.48 1.17.48.34 1.26.34.95 0 1.64-.34.7-.34 1.36-1.04m-6.53-6.74-.55-.99q2.22-2.02 5.33-2.02 1.12 0 2.01.37.89.36 1.5 1.02t.93 1.57.32 2v8.1h-1.4q-.44 0-.67-.13-.24-.13-.38-.53l-.27-.93q-.49.44-.95.77-.47.33-.97.56-.5.22-1.07.34-.56.12-1.25.12-.81 0-1.5-.22t-1.19-.66q-.5-.43-.77-1.08-.28-.65-.28-1.52 0-.48.16-.96.17-.49.53-.92.37-.44.96-.83t1.44-.67q.86-.29 2-.47t2.6-.22v-.75q0-1.29-.55-1.91t-1.59-.62q-.75 0-1.24.18-.5.17-.87.39-.38.22-.68.4-.31.17-.68.17-.33 0-.55-.17-.23-.17-.37-.39m15.17-2 .18 1.45q.6-1.15 1.43-1.81.82-.65 1.95-.65.89 0 1.42.38l-.2 2.32q-.06.22-.18.32-.12.09-.32.09-.18 0-.55-.06-.37-.07-.72-.07-.51 0-.91.15t-.72.44q-.32.28-.57.68-.24.4-.45.91v7.9h-3.09v-12.83h1.81q.48 0 .67.17.18.17.25.61m6.6-6.52h3.08v10.63h.58q.31 0 .49-.08t.37-.33l3.19-3.94q.2-.26.44-.4.25-.14.63-.14h2.83l-3.99 4.77q-.42.56-.92.86.26.19.46.44.21.25.4.53l4.27 6.23h-2.78q-.37 0-.63-.12t-.44-.43l-3.27-4.86q-.18-.29-.36-.38-.19-.09-.57-.09h-.7v5.88h-3.08z"/></svg>