<svg xmlns="http://www.w3.org/2000/svg" width="150" height="50" viewBox="0 0 150 50"><rect width="100%" height="100%" fill="#FFFFFF"/><path fill="#CCC" d="M36.68 30.955q.89 0 1.6-.29.71-.3 1.19-.84t.74-1.32q.26-.77.26-1.72v-9.96h3.09v9.96q0 1.48-.47 2.74-.48 1.26-1.37 2.18-.89.91-2.17 1.42t-2.87.51q-1.61 0-2.89-.51t-2.17-1.42q-.89-.92-1.37-2.18-.47-1.26-.47-2.74v-9.96h3.09v9.95q0 .95.26 1.72t.75 1.32q.48.55 1.19.85.71.29 1.61.29m12.77 2.5h-2.84v-11.8h1.74q.55 0 .72.52l.19.87q.31-.34.65-.63t.72-.49q.39-.21.83-.33t.97-.12q1.12 0 1.84.6.71.6 1.07 1.6.28-.58.69-1t.91-.69q.49-.26 1.05-.39.56-.12 1.12-.12.98 0 1.74.3t1.28.87q.51.58.78 1.4.27.83.27 1.9v7.51h-2.84v-7.51q0-1.13-.49-1.7-.5-.57-1.45-.57-.44 0-.81.15-.38.15-.66.44-.28.28-.44.7-.16.43-.16.98v7.51h-2.85v-7.51q0-1.18-.48-1.72-.48-.55-1.4-.55-.62 0-1.15.31-.54.3-1 .83zm19.26-8.35v5.29q.49.59 1.06.83t1.2.24q.65 0 1.18-.24.52-.23.89-.73t.56-1.28q.2-.77.2-1.85 0-1.95-.65-2.82-.64-.87-1.85-.87-.81 0-1.42.38-.61.37-1.17 1.05m0-8.74v6.74q.72-.75 1.59-1.19.86-.44 1.98-.44 1.02 0 1.85.4.82.4 1.4 1.16.58.75.89 1.82t.31 2.4q0 1.44-.36 2.61-.35 1.17-1.01 2.01-.67.83-1.6 1.29t-2.07.46q-.55 0-1-.11t-.83-.3q-.37-.2-.69-.48t-.6-.63l-.13.8q-.07.3-.24.42-.16.13-.45.13h-1.88v-17.09zm12.72 6 .18 1.34q.55-1.06 1.31-1.66.76-.61 1.79-.61.82 0 1.31.36l-.18 2.13q-.06.2-.17.29t-.29.09q-.17 0-.51-.06t-.66-.06q-.48 0-.84.14-.37.14-.67.4-.29.25-.51.62-.23.37-.42.84v7.27h-2.84v-11.8h1.66q.44 0 .61.16.18.15.23.55m8.32 3.83h5.36q0-.55-.16-1.04-.15-.49-.46-.85-.31-.37-.79-.58-.48-.22-1.11-.22-1.23 0-1.94.7-.71.71-.9 1.99m7.24 1.72h-7.3q.07.91.32 1.57.26.66.67 1.09t.98.64q.57.22 1.26.22t1.19-.17q.5-.16.88-.35.37-.2.65-.36t.55-.16q.35 0 .53.27l.81 1.03q-.47.55-1.05.93-.59.37-1.23.59-.64.23-1.3.32t-1.28.09q-1.23 0-2.29-.41-1.06-.4-1.84-1.2t-1.23-1.98-.45-2.73q0-1.21.39-2.27.39-1.07 1.12-1.86.73-.78 1.79-1.24 1.05-.46 2.37-.46 1.12 0 2.06.35.94.36 1.62 1.04.68.69 1.07 1.68.38 1 .38 2.27 0 .65-.14.87-.14.23-.53.23m2.83-11.55h2.84v17.09h-2.84zm5.72 0h2.84v17.09h-2.84zm11.91 14.04v-1.99q-1.23.06-2.07.22-.84.15-1.34.39-.51.24-.73.57-.22.32-.22.7 0 .74.45 1.07.44.32 1.15.32.88 0 1.51-.32.64-.31 1.25-.96m-6-6.2-.51-.9q2.04-1.87 4.9-1.87 1.04 0 1.85.34.82.34 1.38.94.57.61.86 1.45t.29 1.84v7.45h-1.28q-.41 0-.63-.12-.21-.12-.34-.49l-.25-.85q-.45.4-.88.71-.42.3-.88.51t-.99.31q-.52.11-1.15.11-.75 0-1.38-.2t-1.09-.6-.72-1q-.25-.6-.25-1.39 0-.45.15-.89.15-.45.49-.85t.88-.76 1.33-.62q.78-.26 1.83-.43t2.39-.2v-.69q0-1.19-.5-1.76-.51-.57-1.46-.57-.69 0-1.15.17-.45.16-.8.36-.34.2-.62.36-.29.16-.63.16-.3 0-.51-.15-.2-.16-.33-.37"/></svg>