<svg xmlns="http://www.w3.org/2000/svg" width="150" height="50" viewBox="0 0 150 50"><rect width="100%" height="100%" fill="#FFFFFF"/><path fill="#CCC" d="M58.92 13.87h2.63l-5.61 18.07H52.9l-3.95-12.35q-.16-.45-.3-1.1-.07.31-.15.59-.07.27-.16.51l-3.99 12.35H41.3l-5.6-18.07h2.82q.43 0 .73.2.29.21.39.56l3.08 10.81q.1.4.19.87t.19.98q.1-.53.22-.99t.26-.86l3.55-10.81q.1-.29.39-.53.3-.23.72-.23h.99q.44 0 .71.21.28.21.41.55l3.54 10.81q.26.77.48 1.79.16-.99.36-1.79l3.07-10.81q.08-.32.38-.54.31-.22.74-.22m11.15 14.76v-2.17q-1.34.07-2.25.24-.92.16-1.47.43-.55.26-.78.61-.24.35-.24.76 0 .81.48 1.17.48.34 1.26.34.95 0 1.64-.34t1.36-1.04m-6.53-6.74-.55-.99q2.21-2.02 5.33-2.02 1.12 0 2.01.37.89.36 1.5 1.02t.93 1.57.32 2v8.1h-1.4q-.44 0-.68-.13-.23-.13-.37-.53l-.28-.93q-.48.44-.95.77-.46.33-.96.56-.5.22-1.07.34t-1.25.12q-.82 0-1.5-.22-.69-.22-1.19-.66-.5-.43-.78-1.08-.27-.65-.27-1.52 0-.48.16-.96.16-.49.53-.92.37-.44.96-.83t1.44-.67q.86-.29 2-.47 1.13-.18 2.6-.22v-.75q0-1.29-.55-1.91t-1.59-.62q-.75 0-1.25.18-.49.17-.86.39l-.69.4q-.3.17-.68.17-.32 0-.55-.17-.22-.17-.36-.39m21.61-2.78h2.48l-6.99 16.36q-.14.32-.36.49-.21.17-.66.17h-2.3l2.4-5.15-5.19-11.87h2.71q.36 0 .57.18.21.17.31.4l2.72 6.65q.14.34.23.67.1.34.18.69.12-.35.23-.69.11-.35.25-.68l2.57-6.64q.1-.25.33-.41.24-.17.52-.17m6.69.57.21 1.01q.39-.39.82-.72t.91-.56q.49-.23 1.04-.36.55-.14 1.2-.14 1.05 0 1.86.36t1.35 1q.55.64.83 1.54.28.89.28 1.97v8.16h-3.09v-8.16q0-1.18-.53-1.82-.54-.65-1.64-.65-.8 0-1.5.37-.7.36-1.33.98v9.28h-3.08V19.11h1.88q.6 0 .79.57m13.86 4.37h5.83q0-.6-.17-1.13t-.51-.93q-.33-.4-.85-.63t-1.21-.23q-1.34 0-2.11.76-.76.76-.98 2.16m7.88 1.86h-7.94q.08.99.35 1.71.28.72.73 1.19t1.06.7q.62.23 1.37.23t1.3-.18q.54-.17.95-.38l.71-.39q.31-.18.59-.18.39 0 .58.29l.89 1.13q-.52.6-1.15 1-.64.41-1.34.65-.69.25-1.41.35t-1.39.1q-1.34 0-2.49-.45-1.15-.44-2-1.31t-1.34-2.15q-.48-1.28-.48-2.97 0-1.31.42-2.47.43-1.15 1.22-2.01t1.94-1.36q1.14-.5 2.58-.5 1.21 0 2.24.39 1.02.39 1.76 1.13.74.75 1.15 1.83.42 1.08.42 2.47 0 .7-.15.94t-.57.24"/></svg>